<?xml version="1.0" encoding="utf-8"?>
<!-- Generator: Adobe Illustrator 16.0.4, SVG Export Plug-In . SVG Version: 6.00 Build 0)  -->
<!DOCTYPE svg PUBLIC "-//W3C//DTD SVG 1.1//EN" "http://www.w3.org/Graphics/SVG/1.1/DTD/svg11.dtd">
<svg version="1.1" id="Layer_1" xmlns="http://www.w3.org/2000/svg" xmlns:xlink="http://www.w3.org/1999/xlink" x="0px" y="0px"
	 width="128px" height="128px" viewBox="0 0 128 128" enable-background="new 0 0 128 128" xml:space="preserve">
<g>
	<circle fill="#EA502F" cx="64" cy="64" r="64"/>
	<path fill="#633D50" d="M101.333,51.774c0-1.979-1.604-3.583-3.583-3.583h-7.5c-0.783,0-1.502,0.258-2.092,0.685l-2.088-6.489
		c-1.348-4.188-6.051-7.615-10.45-7.615H52.38c-4.4,0-9.103,3.427-10.45,7.615l-2.087,6.488c-0.59-0.426-1.308-0.685-2.091-0.685
		h-7.5c-1.979,0-3.583,1.604-3.583,3.583s1.604,3.583,3.583,3.583h3.829l-2.587,2.222c-0.407,0.353-0.796,0.902-1.091,1.511
		c-0.027,0.046-0.058,0.094-0.076,0.141c-0.294,0.636-0.474,1.31-0.474,1.869v2.099v0.99v15.332v3.34v1.285
		c0,4.073,3.302,7.375,7.375,7.375s7.375-3.302,7.375-7.375V82.86h38.796v1.285c0,4.073,3.302,7.375,7.375,7.375
		s7.375-3.302,7.375-7.375V82.86v-3.34V61.1c0-1.138-0.769-2.751-1.66-3.463l-2.855-2.279h4.117
		C99.729,55.357,101.333,53.753,101.333,51.774z"/>
	<g>
		<path fill="#4CB6CF" d="M43.192,54.348c1.628-3.875,2.799-6.797,4.445-11.002c0.574-1.469,2.377-2.787,4.032-2.91
			c8.204-0.613,16.458-0.613,24.662-0.001c1.655,0.122,3.458,1.44,4.032,2.909c1.646,4.205,2.815,7.129,4.443,11.004
			c0.643,1.527-0.173,2.763-1.829,2.763c-12.652,0-25.304,0-37.955,0C43.366,57.11,42.551,55.876,43.192,54.348z"/>
	</g>
	<g>
		<circle fill="#FBD536" cx="42" cy="70.689" r="4.5"/>
		<circle fill="#FBD536" cx="86" cy="70.689" r="4.5"/>
	</g>
</g>
</svg>
